# xmcd
#
# Track frame offsets:
#	150
#	19874
#	36945
#	72926
#	90301
#	111725
#	141182
#	152183
#	171527
#	197841
#	216744
#	232506
#	250102
#	263960
#	282007
#
# Disc length: 4132 seconds
#
# Revision: 2
# Processed by: cddbd v1.5.1PL0 Copyright (c) Steve Scherf et al.
# Submitted via: audiograbber 1.83.01
#
DISCID=df10220f
DTITLE=Various Artist - Sharp-Dressed Men - ZZ Top Tribute
DYEAR=2002
DGENRE=Country
TTITLE0=Lonestar - Gimme All Your Lovin'
TTITLE1=Brad Paisley - Sharp Dressed Man
TTITLE2=Hank Williams, Jr - Jesus Just Left Chicago/Waitin' For The Bus
TTITLE3=Tracy Bryd - La Grange
TTITLE4=Brooks and Dunn - Rough Boy
TTITLE5=Dwight Yoakam - I'm Bad, I'm Nationwide
TTITLE6=Willie Nelson - She Loves My Automobile
TTITLE7=Andy Griggs - I Need You Tonight
TTITLE8=The Warren Brothers - Cheap Sunglasses
TTITLE9=Trace Adkins - Legs
TTITLE10=Kenny Chesney - Tush
TTITLE11=Montgomery Gentry - Just Got Paid
TTITLE12=Phil Vassar - I Thank You
TTITLE13=Hank Williams III - Fearless Boogie
TTITLE14=Alan Jackson - Sure Got Cold After The Rain Fell
EXTD=
EXTT0=
EXTT1=
EXTT2=
EXTT3=
EXTT4=
EXTT5=
EXTT6=
EXTT7=
EXTT8=
EXTT9=
EXTT10=
EXTT11=
EXTT12=
EXTT13=
EXTT14=
PLAYORDER=
